<?xml version="1.0" encoding="UTF-8"?>
<svg id="Layer_2" data-name="Layer 2" xmlns="http://www.w3.org/2000/svg" viewBox="0 0 496.11 80.25">
  <g id="Layer_2-2" data-name="Layer 2">
    <g id="Layer_1-2" data-name="Layer 1-2">
      <path d="M40.45,14.3l16.79,7.67v23.64c3.5-.46,6.97-.79,10.52-.86l.47,2.78c-10.27.13-22.79,2.82-31.59,6.09-.38.14-.35.23-.29.25l6.09,2.29c7.61-2.78,15.48-4.97,23.55-5.85l-1.12,2.97c-6.32.89-12.46,2.39-18.63,4.54l6.51,3.29c3.73-1.47,7.47-2.81,11.4-3.62l.24,2.79c-2.84.72-5.66,1.51-8.45,2.65,2.98,1.84,5.72,3.6,8.54,5.67l2.18-1.9c.6-.52.76-1.25.46-1.99-2.13-4.37-2.23-10.05.58-14.35,1.73,2.8,2.26,6.02,1.89,9.2-.2,1.78-.73,3.32-1.29,5.03h.22c1.5-1.82,2.79-3.58,4.01-5.66l-1.53.1.04-2.84,3.13-.28c.35-.56.04-1.26-.42-1.7-3.56-3.42-5.34-8.4-4.31-13.4,3.4,2.73,5.26,6.73,5.35,10.99.02.82.05,1.54.23,2.41,1.03-2.44,1.85-4.81,2.27-7.39.05-.76-.59-1.57-.89-2.22-1.06.15-1.91,0-2.71-.63-1.34-1.07-2.04-2.79-1.71-4.48.25-1.31,1.46-2.07,2.79-1.59,2.07.74,3.4,3.21,2.69,5.34-.21.64-.48,1.18.3,1.68.2-1.99.53-3.91.37-6.03-.06-.82-.92-1.56-1.55-1.88-2.18-1.1-4.07-2.47-5.57-4.38-1.54-1.98-2.64-4.23-2.87-6.83,3.32,1.13,5.93,3.47,7.66,6.43.68,1.18,1.17,2.36,1.64,3.63.16.42.24.85.73,1.11-.17-1.28.21-2.77-.32-4-1.57-3.64-2.14-7.51-.95-11.36.34-1.1.73-2.16,1.49-3.16,1.57,2.5,2.22,5.39,2.05,8.29-.12,1.94-.64,3.73-1.37,5.5-.22.54-.28,1.09-.19,1.67.57,2.44.53,4.83.78,7.37.24-5.09,2.61-9.66,6.99-12.28.25,1.96-.07,3.72-.69,5.48-1.05,3.01-3.01,5.47-5.52,7.39-.46.35-.86,1.19-.93,1.72l-.77,5.57c.39-.23.81-.64,1.04-1.05-.89-2.35,1.31-5.07,3.43-5.53.68-.15,1.41-.02,1.92.44,1.54,1.37.45,4.73-2.1,5.94-.86.41-1.67.3-2.57,0-.72.65-1.74,1.48-2.22,2.36-.75,2.37-1.5,4.51-2.51,6.85.48-.19.86-.41,1.32-.69-.23-1.38.19-2.6,1.18-3.54,1.29-1.22,3.48-2.16,4.68-.83.4.45.62,1.14.53,1.81-.24,1.83-1.67,3.22-3.38,3.81-.91.31-1.67,0-2.51-.34-.93.44-2.03,1.07-2.8,1.69-.98,1.73-1.96,3.24-3.13,4.87,1.18-.8,2.16-1.61,3.39-2.24,2.95-1.53,6.33-2.2,9.8-1.36-2.96,3.67-7.59,5.35-12.15,5.05-.86-.06-1.94-.15-2.58.53-1.59,1.68-3.16,3.25-5.04,4.61,4.54-1.91,9.13-2.43,13.68.16-3.19,2.2-7.08,2.86-10.79,2.15-1.11-.21-2.08-.51-3.17-.84-.45-.14-1.15-.27-1.58.03-10.51,7.16-22.86,9.09-35.06,5.35-4.94-1.51-9.4-3.98-13.41-7.21C-4.16,55.98-4.96,27.14,12.78,10.74,20.49,3.61,30.58-.25,41.13.01c4.55.11,8.94.83,13.2,2.43,9.01,3.39,16.75,9.79,21.47,18.26-.44,1.42-.64,2.79-.93,4.31C66.21,6.56,45.25-1.93,26.31,5.5c-3.77,1.48-7.11,3.57-10.21,6.13-5.68,4.77-9.82,11.1-11.86,18.24-1.66,6.03-1.87,12.31-.51,18.39,6.78,0,13.28.73,19.91,2.08v-28.36s16.83-7.68,16.83-7.68h0ZM40.45,17.6l-13.97,6.67v26.7s5.41,1.46,5.41,1.46l3.16-1.23-.03-14.16c0-2.99,1.88-5.43,5.01-5.7,3.12-.23,5.62,1.99,5.84,5.08v11.38s8.54-1.73,8.54-1.73v-21.79s-13.97-6.67-13.97-6.67ZM75.76,40.43c.14-.81-1.03-1.6-1.78-1.38-.64.2,1.66,2.02,1.78,1.38ZM84.03,43.91c-.84-.47-1.96.13-2.04,1.04.78.2,1.66-.24,2.04-1.04ZM57.08,73.48c1.81-1.02,3.44-1.92,5.05-3.09-7.29-5.34-15.19-9.56-23.58-12.74-10.9-4.16-22.43-6.45-34.09-6.56.27,1,.55,1.78.92,2.65,9.15.83,18.03,2.96,26.63,6.18,8.96,3.35,17.31,7.93,25.08,13.55ZM81.72,53.86c-.64-.51-1.29-.17-1.86.17-.18.11-.33.65-.11.69.77.13,1.57-.18,1.96-.87ZM46.33,76.96c2.7-.53,5.25-1.09,7.74-2.19-14.16-10-30.36-16.16-47.42-18.06.74,1.55,1.54,2.87,2.47,4.19,13.44,2.58,26.01,8.1,37.21,16.06ZM41.96,77.36c-9.48-6.23-19.31-10.5-30.33-13.04,7.6,8.67,18.6,13.59,30.33,13.04Z" fill="#987c4f"></path>
      <g>
        <path d="M116.7,48.79l.43-20.86,1.17.09-.48,20.78c-.03,1.53.27,2.7.89,3.51.62.81,1.55,1.21,2.8,1.21.09,0,.13.09.13.26s-.04.26-.13.26c-.64,0-1.29-.01-1.95-.04-.67-.03-1.42-.04-2.26-.04s-1.65.02-2.36.04c-.71.03-1.38.04-2.02.04-.09,0-.13-.09-.13-.26s.04-.26.13-.26c1.19,0,2.1-.4,2.75-1.21.65-.81.99-1.98,1.02-3.51h0ZM147.41,53.52c.06,0,.09.09.09.26s-.03.26-.09.26c-.75,0-1.59-.01-2.52-.04-.93-.03-1.89-.04-2.91-.04s-1.96.02-2.84.04c-.88.03-1.68.04-2.41.04-.06,0-.09-.09-.09-.26s.03-.26.09-.26c1.39,0,2.28-.19,2.69-.56.4-.38.56-1.19.48-2.43l-.91-19.82,1.91-2.99-11.1,26.03c-.03.12-.15.17-.35.17s-.33-.06-.39-.17l-11.76-23.21c-1.04-2.05-2.4-3.08-4.08-3.08-.09,0-.13-.09-.13-.26s.04-.26.13-.26c.55,0,1.14.01,1.76.04.62.03,1.15.04,1.58.04.64,0,1.21-.01,1.71-.04.5-.03.9-.04,1.19-.04.4,0,.72.14.93.41s.57.89,1.06,1.84l9.76,19.13-1.87,3.3,10.28-23.6c.17-.38.36-.65.56-.82.2-.17.45-.26.74-.26.26,0,.54.01.85.04.3.03.67.04,1.11.04.87,0,1.6-.01,2.21-.04.61-.03,1.2-.04,1.78-.04.09,0,.13.09.13.26s-.04.26-.13.26c-1.33,0-2.31.25-2.95.74-.64.49-.93,1.33-.87,2.52l.95,19.82c.06.84.17,1.48.32,1.91s.48.72.95.87c.48.15,1.18.22,2.1.22h0Z" fill="#987c4f"></path>
        <path d="M169.09,54.56c-2.08,0-3.97-.37-5.66-1.1-1.69-.74-3.14-1.76-4.34-3.06-1.2-1.3-2.13-2.8-2.78-4.49-.65-1.69-.98-3.49-.98-5.4,0-2.34.46-4.4,1.37-6.16.91-1.76,2.12-3.23,3.62-4.4,1.5-1.17,3.15-2.05,4.94-2.62,1.79-.58,3.57-.87,5.34-.87,2.14,0,4.06.38,5.75,1.15,1.69.77,3.13,1.8,4.32,3.1,1.19,1.3,2.09,2.78,2.71,4.42s.93,3.34.93,5.08c0,2.02-.4,3.9-1.21,5.64s-1.92,3.25-3.32,4.56c-1.4,1.3-3.02,2.32-4.86,3.06-1.84.74-3.78,1.1-5.83,1.1h0ZM170.57,53.52c1.74,0,3.29-.46,4.66-1.39,1.37-.93,2.46-2.29,3.25-4.1.79-1.81,1.19-4,1.19-6.57s-.43-5.08-1.3-7.16c-.87-2.08-2.11-3.72-3.73-4.92-1.62-1.2-3.56-1.8-5.81-1.8-2.81,0-4.98,1-6.53,3.01-1.55,2.01-2.32,4.79-2.32,8.35,0,2.08.26,4.01.78,5.79.52,1.78,1.25,3.33,2.19,4.66.94,1.33,2.05,2.35,3.34,3.06,1.29.71,2.71,1.06,4.27,1.06h0Z" fill="#987c4f"></path>
        <path d="M218.68,54.65c0,.09-.07.14-.22.15-.15.01-.25,0-.3-.02l-20.86-24.29c-1.04-1.19-1.93-1.99-2.67-2.41s-1.45-.63-2.15-.63c-.09,0-.13-.09-.13-.26s.04-.26.13-.26c.55,0,1.11.01,1.69.04.58.03,1.11.04,1.6.04.87,0,1.65-.01,2.36-.04.71-.03,1.25-.04,1.63-.04s.65.17.82.5c.17.33.61.92,1.3,1.76l16.44,19.35.35,6.12h0ZM196.64,48.79v-20.86l1.17.09v20.78c0,1.53.3,2.7.91,3.51.61.81,1.48,1.21,2.6,1.21.09,0,.13.09.13.26s-.04.26-.13.26c-.61,0-1.24-.01-1.89-.04-.65-.03-1.37-.04-2.15-.04-.84,0-1.64.02-2.41.04-.77.03-1.48.04-2.15.04-.09,0-.13-.09-.13-.26s.04-.26.13-.26c1.27,0,2.24-.4,2.91-1.21.66-.81,1-1.98,1-3.51h0ZM218.68,32.22v22.43l-1.17-1.3v-21.12c0-1.53-.3-2.71-.89-3.53s-1.47-1.24-2.62-1.24c-.06,0-.09-.09-.09-.26s.03-.26.09-.26c.61,0,1.24.02,1.91.06.66.04,1.39.07,2.17.07s1.49-.02,2.21-.07c.72-.04,1.39-.06,2-.06.09,0,.13.09.13.26s-.04.26-.13.26c-1.16,0-2.05.41-2.67,1.24-.62.82-.93,2-.93,3.53h0Z" fill="#987c4f"></path>
        <path d="M236.85,27.84c-1.76,0-3.2.55-4.32,1.65-1.11,1.1-1.99,2.72-2.62,4.86,0,.09-.08.12-.24.11-.16-.01-.24-.05-.24-.11.06-.4.12-.96.17-1.67.06-.71.12-1.48.2-2.32.07-.84.13-1.66.17-2.45.04-.8.06-1.44.06-1.93,0-.14.08-.22.24-.22s.24.07.24.22c0,.29.15.5.46.63.3.13.64.22,1.02.26s.69.07.95.07c2.49.09,5.39.13,8.72.13,2.05,0,3.68-.02,4.88-.07,1.2-.04,2.36-.06,3.49-.06,1.04,0,1.83-.07,2.36-.19s.87-.43,1.02-.89c.03-.11.12-.17.26-.17s.22.06.22.17c-.03.46-.07,1.09-.13,1.89-.06.8-.1,1.64-.13,2.52-.03.88-.06,1.69-.09,2.43-.03.74-.04,1.29-.04,1.67,0,.06-.08.09-.24.09s-.25-.03-.28-.09c-.32-2.28-1.01-3.94-2.08-4.97-1.07-1.02-2.5-1.54-4.29-1.54-.78,0-1.37.07-1.78.22-.4.15-.68.41-.82.8-.15.39-.22.95-.22,1.67v20c0,.84.09,1.48.28,1.91.19.43.55.72,1.08.87.54.15,1.35.22,2.45.22.09,0,.13.09.13.26s-.04.26-.13.26c-.78,0-1.67-.01-2.67-.04-1-.03-2.09-.04-3.27-.04s-2.18.02-3.17.04c-.98.03-1.9.04-2.73.04-.06,0-.09-.09-.09-.26s.03-.26.09-.26c1.1,0,1.92-.07,2.47-.22.55-.15.92-.43,1.11-.87.19-.43.28-1.07.28-1.91v-20.08c0-.72-.07-1.27-.2-1.63s-.4-.61-.8-.76-1-.22-1.78-.22h0Z" fill="#987c4f"></path>
        <path d="M280.92,54.04h-18.83c-.09,0-.13-.09-.13-.26s.04-.26.13-.26c.95,0,1.66-.07,2.12-.22.46-.15.77-.43.93-.87.16-.43.24-1.07.24-1.91v-20.08c0-.84-.08-1.47-.24-1.89-.16-.42-.47-.71-.93-.87-.46-.16-1.17-.24-2.12-.24-.09,0-.13-.09-.13-.26s.04-.26.13-.26h18.05c.29,0,.43.13.43.39l.09,5.64c0,.06-.07.09-.22.11-.15.01-.25-.02-.3-.11-.32-1.65-.98-2.88-2-3.69-1.01-.81-2.34-1.21-3.99-1.21h-1.78c-.72,0-1.3.08-1.71.24s-.72.42-.89.78c-.17.36-.26.85-.26,1.45v19.82c0,.61.08,1.1.24,1.5s.41.67.76.82c.35.16.84.24,1.48.24h2.13c1.97,0,3.56-.47,4.77-1.41s2.08-2.33,2.6-4.19c.03-.09.12-.12.28-.09.16.03.24.07.24.13-.12.81-.22,1.78-.3,2.91s-.13,2.17-.13,3.12c0,.43-.22.65-.65.65h0ZM278.49,44.24c0-1.22-.4-2.14-1.21-2.78s-2.02-.95-3.64-.95h-6.07v-1.13h6.12c1.62,0,2.82-.27,3.6-.82.78-.55,1.17-1.35,1.17-2.39,0-.09.08-.13.24-.13s.24.04.24.13c0,.93,0,1.65-.02,2.17-.02.52-.02,1.06-.02,1.6,0,.69.02,1.38.06,2.06.04.68.07,1.42.07,2.23,0,.06-.09.09-.26.09s-.26-.03-.26-.09h0Z" fill="#987c4f"></path>
        <path d="M321.87,26.45c1.24,0,2.57.11,3.99.33,1.42.22,2.54.54,3.38.98.26.09.43.19.5.33s.12.35.15.67l.52,5.64c0,.06-.07.11-.2.15-.13.04-.23,0-.28-.11-.84-2.26-2.1-3.98-3.8-5.16-1.69-1.19-3.68-1.78-5.96-1.78-2.05,0-3.8.49-5.23,1.48-1.43.98-2.53,2.35-3.3,4.1-.77,1.75-1.15,3.78-1.15,6.1,0,2.02.27,3.92.82,5.68.55,1.76,1.32,3.31,2.3,4.64.98,1.33,2.14,2.37,3.47,3.12,1.33.75,2.78,1.13,4.34,1.13,1.91,0,3.61-.58,5.1-1.76,1.49-1.17,2.76-3.01,3.8-5.53.06-.12.16-.15.3-.11.14.04.22.09.22.15l-.65,5.55c-.06.35-.12.57-.2.67-.07.1-.24.21-.5.33-1.33.52-2.67.9-4.03,1.15-1.36.24-2.69.37-3.99.37-2.78,0-5.16-.43-7.16-1.28-2-.85-3.61-1.98-4.86-3.38-1.24-1.4-2.16-2.94-2.76-4.62s-.89-3.33-.89-4.94c0-2.11.44-4.02,1.32-5.73s2.08-3.17,3.58-4.38c1.5-1.21,3.22-2.15,5.14-2.8,1.92-.65,3.93-.98,6.01-.98h0Z" fill="#987c4f"></path>
        <path d="M368.33,53.52c.11,0,.17.09.17.26s-.06.26-.17.26c-.87,0-1.76-.03-2.67-.09-.91-.06-1.79-.09-2.62-.09-.95,0-1.79.03-2.49.09-.71.06-1.5.09-2.36.09-.12,0-.17-.09-.17-.26s.06-.26.17-.26c1.3,0,2.08-.23,2.34-.69.26-.46.04-1.37-.65-2.73l-9.07-18.44,1.78-2.91-8.59,19.35c-.75,1.76-.77,3.11-.07,4.03.71.93,1.92,1.39,3.62,1.39.14,0,.22.09.22.26s-.07.26-.22.26c-.87,0-1.66-.03-2.39-.09-.72-.06-1.63-.09-2.73-.09s-1.97.03-2.62.09c-.65.06-1.45.09-2.41.09-.11,0-.17-.09-.17-.26s.06-.26.17-.26c.78,0,1.45-.16,2.02-.48.56-.32,1.12-.9,1.67-1.76.55-.85,1.16-2.05,1.82-3.58l9.33-21.04c.06-.09.19-.13.39-.13s.32.04.35.13l10.63,21.43c.67,1.39,1.26,2.48,1.78,3.28.52.79,1.01,1.35,1.48,1.67s.95.48,1.48.48h0ZM346.85,40.6l.65-1.13h8.94l.3,1.13h-9.89Z" fill="#987c4f"></path>
        <path d="M380.21,31.57c0,1.13.29,2.1.87,2.93.58.82,1.32,1.57,2.23,2.23.91.67,1.87,1.32,2.88,1.95,1.1.67,2.15,1.37,3.15,2.13,1,.75,1.82,1.61,2.47,2.58.65.97.98,2.15.98,3.53,0,1.5-.39,2.83-1.17,3.97-.78,1.14-1.86,2.04-3.23,2.69-1.37.65-2.99.98-4.84.98-.78,0-1.6-.07-2.45-.22-.85-.15-1.65-.35-2.39-.61-.74-.26-1.34-.53-1.8-.82-.12-.09-.21-.19-.28-.3-.07-.12-.12-.29-.15-.52l-.26-6.55c-.03-.15.04-.22.2-.24.16-.01.25.04.28.15.35.87.76,1.79,1.24,2.76s1.03,1.86,1.67,2.67c.64.81,1.37,1.47,2.19,1.97s1.77.76,2.84.76c.75,0,1.46-.13,2.13-.39.67-.26,1.21-.72,1.65-1.37s.65-1.54.65-2.67c0-1.36-.31-2.52-.93-3.49-.62-.97-1.41-1.81-2.36-2.54-.95-.72-1.95-1.4-2.99-2.04-1.01-.67-1.98-1.35-2.91-2.04s-1.68-1.5-2.28-2.41c-.59-.91-.89-2.02-.89-3.32,0-1.59.43-2.89,1.3-3.9.87-1.01,1.97-1.76,3.32-2.26,1.35-.49,2.73-.74,4.14-.74.95,0,1.92.09,2.91.26.98.17,1.82.42,2.52.74.26.09.43.2.52.35.09.15.13.3.13.48l.09,5.86c0,.12-.07.19-.2.22s-.23,0-.28-.09c-.14-.43-.36-1.03-.65-1.8-.29-.77-.69-1.54-1.21-2.32-.52-.78-1.17-1.45-1.95-2-.78-.55-1.73-.82-2.86-.82-.87,0-1.62.17-2.26.52-.64.35-1.13.83-1.48,1.45-.35.62-.52,1.38-.52,2.28h0Z" fill="#987c4f"></path>
        <path d="M415.74,54.56c-2.08,0-3.97-.37-5.66-1.1-1.69-.74-3.14-1.76-4.34-3.06-1.2-1.3-2.13-2.8-2.78-4.49-.65-1.69-.98-3.49-.98-5.4,0-2.34.45-4.4,1.37-6.16.91-1.76,2.12-3.23,3.62-4.4,1.5-1.17,3.15-2.05,4.94-2.62,1.79-.58,3.57-.87,5.34-.87,2.14,0,4.06.38,5.75,1.15,1.69.77,3.13,1.8,4.32,3.1,1.19,1.3,2.09,2.78,2.71,4.42s.93,3.34.93,5.08c0,2.02-.4,3.9-1.21,5.64s-1.92,3.25-3.32,4.56c-1.4,1.3-3.02,2.32-4.86,3.06-1.84.74-3.78,1.1-5.83,1.1h0ZM417.21,53.52c1.73,0,3.29-.46,4.66-1.39,1.37-.93,2.46-2.29,3.25-4.1.8-1.81,1.19-4,1.19-6.57s-.43-5.08-1.3-7.16c-.87-2.08-2.11-3.72-3.73-4.92-1.62-1.2-3.56-1.8-5.81-1.8-2.81,0-4.98,1-6.53,3.01-1.55,2.01-2.32,4.79-2.32,8.35,0,2.08.26,4.01.78,5.79.52,1.78,1.25,3.33,2.19,4.66.94,1.33,2.05,2.35,3.34,3.06,1.29.71,2.71,1.06,4.27,1.06h0Z" fill="#987c4f"></path>
        <path d="M465.32,54.65c0,.09-.07.14-.22.15-.15.01-.25,0-.3-.02l-20.86-24.29c-1.04-1.19-1.93-1.99-2.67-2.41s-1.45-.63-2.15-.63c-.09,0-.13-.09-.13-.26s.04-.26.13-.26c.55,0,1.11.01,1.69.04.58.03,1.11.04,1.61.04.87,0,1.65-.01,2.36-.04.71-.03,1.25-.04,1.63-.04s.65.17.82.5c.17.33.61.92,1.3,1.76l16.44,19.35.35,6.12h0ZM443.28,48.79v-20.86l1.17.09v20.78c0,1.53.3,2.7.91,3.51.61.81,1.48,1.21,2.6,1.21.09,0,.13.09.13.26s-.04.26-.13.26c-.61,0-1.24-.01-1.89-.04-.65-.03-1.37-.04-2.15-.04-.84,0-1.64.02-2.41.04-.77.03-1.48.04-2.15.04-.09,0-.13-.09-.13-.26s.04-.26.13-.26c1.27,0,2.24-.4,2.91-1.21.67-.81,1-1.98,1-3.51h0ZM465.32,32.22v22.43l-1.17-1.3v-21.12c0-1.53-.3-2.71-.89-3.53s-1.47-1.24-2.62-1.24c-.06,0-.09-.09-.09-.26s.03-.26.09-.26c.61,0,1.24.02,1.91.06.67.04,1.39.07,2.17.07s1.49-.02,2.21-.07c.72-.04,1.39-.06,2-.06.09,0,.13.09.13.26s-.04.26-.13.26c-1.16,0-2.05.41-2.67,1.24-.62.82-.93,2-.93,3.53h0Z" fill="#987c4f"></path>
        <path d="M495.03,54.04h-18.83c-.09,0-.13-.09-.13-.26s.04-.26.13-.26c.95,0,1.66-.07,2.12-.22.46-.15.77-.43.93-.87.16-.43.24-1.07.24-1.91v-20.08c0-.84-.08-1.47-.24-1.89-.16-.42-.47-.71-.93-.87-.46-.16-1.17-.24-2.12-.24-.09,0-.13-.09-.13-.26s.04-.26.13-.26h18.05c.29,0,.43.13.43.39l.09,5.64c0,.06-.07.09-.22.11-.15.01-.25-.02-.3-.11-.32-1.65-.98-2.88-2-3.69-1.01-.81-2.34-1.21-3.99-1.21h-1.78c-.72,0-1.3.08-1.71.24s-.72.42-.89.78c-.17.36-.26.85-.26,1.45v19.82c0,.61.08,1.1.24,1.5s.41.67.76.82c.35.16.84.24,1.48.24h2.13c1.97,0,3.56-.47,4.77-1.41s2.08-2.33,2.6-4.19c.03-.09.12-.12.28-.09.16.03.24.07.24.13-.12.81-.22,1.78-.3,2.91s-.13,2.17-.13,3.12c0,.43-.22.65-.65.65h0ZM492.6,44.24c0-1.22-.4-2.14-1.21-2.78s-2.02-.95-3.64-.95h-6.07v-1.13h6.12c1.62,0,2.82-.27,3.6-.82.78-.55,1.17-1.35,1.17-2.39,0-.09.08-.13.24-.13s.24.04.24.13c0,.93,0,1.65-.02,2.17-.02.52-.02,1.06-.02,1.6,0,.69.02,1.38.06,2.06.04.68.07,1.42.07,2.23,0,.06-.09.09-.26.09s-.26-.03-.26-.09h0Z" fill="#987c4f"></path>
      </g>
    </g>
  </g>
</svg>