<?xml version="1.0" encoding="UTF-8"?>
<svg id="Layer_3" data-name="Layer 3" xmlns="http://www.w3.org/2000/svg" viewBox="0 0 626.1 101.27">
  <g id="Layer_2" data-name="Layer 2">
    <g id="Layer_1-2" data-name="Layer 1-2">
      <path d="M51.05,18.05l21.19,9.68v29.83c4.41-.58,8.8-1,13.28-1.09l.59,3.5c-12.96.17-28.76,3.56-39.87,7.69-.48.18-.44.29-.37.32l7.68,2.89c9.6-3.5,19.53-6.27,29.72-7.38l-1.41,3.75c-7.97,1.12-15.72,3.01-23.51,5.73l8.21,4.15c4.7-1.85,9.42-3.54,14.39-4.57l.3,3.52c-3.58.91-7.14,1.91-10.67,3.35,3.76,2.32,7.21,4.54,10.78,7.16l2.75-2.4c.76-.66.96-1.57.58-2.51-2.69-5.52-2.82-12.69.73-18.11,2.18,3.53,2.85,7.6,2.39,11.61-.26,2.25-.92,4.19-1.62,6.35l.28.02c1.89-2.32,3.53-4.54,5.06-7.16l-1.93.12.05-3.58,3.95-.35c.44-.71.05-1.58-.53-2.15-4.49-4.32-6.74-10.6-5.43-16.91,4.29,3.44,6.64,8.49,6.75,13.86.02,1.03.06,1.94.29,3.04,1.3-3.07,2.33-6.07,2.87-9.32.06-.96-.74-1.98-1.12-2.81-1.34.19-2.41.01-3.41-.79-1.69-1.35-2.58-3.52-2.16-5.66.32-1.65,1.85-2.61,3.53-2.01,2.61.93,4.29,4.05,3.39,6.74-.27.81-.6,1.49.37,2.12.25-2.51.67-4.93.47-7.61-.08-1.04-1.16-1.98-1.95-2.38-2.75-1.39-5.14-3.12-7.02-5.53-1.94-2.5-3.33-5.34-3.62-8.62,4.2,1.43,7.49,4.38,9.66,8.12.86,1.49,1.47,2.97,2.07,4.58.2.54.3,1.07.92,1.4-.21-1.61.27-3.5-.4-5.05-1.98-4.59-2.7-9.48-1.2-14.33.43-1.39.92-2.72,1.88-3.99,1.98,3.16,2.81,6.8,2.59,10.46-.15,2.45-.81,4.71-1.72,6.94-.28.69-.36,1.38-.24,2.11.72,3.09.67,6.09.98,9.3.31-6.42,3.29-12.19,8.82-15.49.32,2.47-.09,4.7-.87,6.92-1.32,3.8-3.79,6.91-6.97,9.33-.58.44-1.08,1.5-1.17,2.17l-.97,7.03c.49-.29,1.02-.81,1.31-1.33-1.13-2.97,1.65-6.4,4.33-6.98.86-.19,1.78-.03,2.43.55,1.94,1.72.57,5.97-2.65,7.5-1.09.51-2.11.37-3.24,0-.91.82-2.19,1.87-2.8,2.98-.94,2.99-1.89,5.7-3.17,8.64.6-.24,1.09-.52,1.67-.87-.29-1.74.24-3.28,1.49-4.46,1.63-1.54,4.39-2.72,5.91-1.04.51.57.78,1.43.67,2.29-.3,2.31-2.11,4.06-4.27,4.81-1.14.39-2.11,0-3.17-.43-1.17.56-2.56,1.35-3.53,2.14-1.24,2.18-2.48,4.09-3.95,6.15,1.49-1.01,2.72-2.03,4.28-2.83,3.73-1.92,7.99-2.78,12.37-1.72-3.74,4.64-9.57,6.75-15.34,6.37-1.09-.07-2.44-.19-3.25.67-2.01,2.11-3.99,4.1-6.36,5.82,5.73-2.41,11.52-3.07,17.27.2-4.03,2.77-8.94,3.61-13.62,2.72-1.41-.27-2.63-.64-4-1.06-.57-.17-1.45-.34-2,.03-13.26,9.03-28.86,11.47-44.25,6.76-6.23-1.91-11.87-5.03-16.92-9.09C-5.25,70.64-6.25,34.25,16.12,13.56,25.86,4.56,38.6-.31,51.9.02c5.75.14,11.28,1.05,16.66,3.07,11.37,4.27,21.14,12.35,27.09,23.04-.56,1.8-.81,3.52-1.17,5.44C83.56,8.28,57.11-2.44,33.2,6.94c-4.75,1.86-8.97,4.5-12.89,7.74-7.17,6.02-12.39,14-14.97,23.02-2.1,7.61-2.36,15.53-.65,23.21,8.56,0,16.77.93,25.12,2.62V27.73s21.24-9.69,21.24-9.69h0ZM51.05,22.21l-17.63,8.42v33.69s6.82,1.85,6.82,1.85l3.99-1.55-.03-17.87c0-3.77,2.37-6.85,6.32-7.2,3.93-.29,7.1,2.52,7.38,6.41v14.36s10.78-2.19,10.78-2.19l-.02-27.5s-17.61-8.42-17.61-8.42ZM95.61,51.02c.18-1.03-1.3-2.02-2.24-1.74-.81.25,2.1,2.55,2.24,1.74ZM106.05,55.41c-1.06-.59-2.47.17-2.58,1.31.98.25,2.09-.3,2.58-1.31ZM72.03,92.73c2.28-1.29,4.34-2.43,6.37-3.9-9.2-6.74-19.17-12.06-29.76-16.08-13.76-5.25-28.31-8.14-43.02-8.27.34,1.27.7,2.25,1.16,3.35,11.55,1.05,22.76,3.73,33.61,7.8,11.31,4.23,21.85,10.01,31.65,17.1ZM103.14,67.97c-.81-.64-1.62-.22-2.34.22-.23.14-.42.83-.13.87.97.17,1.99-.23,2.48-1.09ZM58.47,97.12c3.41-.67,6.62-1.38,9.77-2.76-17.87-12.62-38.32-20.4-59.85-22.8.93,1.95,1.95,3.62,3.11,5.29,16.96,3.26,32.82,10.22,46.96,20.26ZM52.95,97.63c-11.97-7.86-24.37-13.25-38.27-16.46,9.6,10.94,23.47,17.15,38.27,16.46Z" fill="#fff"></path>
      <g>
        <path d="M147.27,61.58l.55-26.33,1.48.11-.6,26.22c-.04,1.93.34,3.41,1.12,4.43.78,1.02,1.96,1.53,3.53,1.53.11,0,.16.11.16.33s-.05.33-.16.33c-.8,0-1.62-.02-2.46-.05-.84-.04-1.79-.06-2.85-.06s-2.09.02-2.98.06c-.89.04-1.74.05-2.55.05-.11,0-.16-.11-.16-.33s.05-.33.16-.33c1.5,0,2.66-.51,3.48-1.53.82-1.02,1.25-2.5,1.29-4.43h0ZM186.03,67.54c.07,0,.11.11.11.33s-.04.33-.11.33c-.95,0-2.01-.02-3.18-.05-1.17-.04-2.39-.06-3.67-.06s-2.47.02-3.59.06c-1.11.04-2.13.05-3.04.05-.07,0-.11-.11-.11-.33s.04-.33.11-.33c1.75,0,2.88-.24,3.39-.71.51-.47.71-1.5.6-3.07l-1.15-25.02,2.41-3.78-14.01,32.85c-.04.15-.18.22-.44.22s-.42-.07-.49-.22l-14.84-29.29c-1.31-2.59-3.03-3.89-5.15-3.89-.11,0-.16-.11-.16-.33s.05-.33.16-.33c.69,0,1.43.02,2.22.05.78.04,1.45.06,2,.06.8,0,1.52-.02,2.16-.06.64-.04,1.14-.05,1.5-.05.51,0,.9.17,1.18.52s.72,1.12,1.34,2.33l12.32,24.14-2.35,4.16,12.97-29.78c.22-.47.46-.82.71-1.04.25-.22.57-.33.93-.33.33,0,.69.02,1.07.05.38.04.85.06,1.4.06,1.1,0,2.03-.02,2.79-.06.76-.04,1.51-.05,2.24-.05.11,0,.16.11.16.33s-.05.33-.16.33c-1.68,0-2.92.31-3.72.93-.8.62-1.17,1.68-1.09,3.18l1.2,25.02c.07,1.06.21,1.86.41,2.41s.6.91,1.2,1.09c.6.18,1.49.27,2.66.27h0Z" fill="#fff"></path>
        <path d="M213.4,68.86c-2.63,0-5.01-.46-7.14-1.39-2.14-.93-3.96-2.22-5.47-3.86-1.51-1.64-2.68-3.53-3.5-5.67-.82-2.14-1.23-4.41-1.23-6.81,0-2.96.57-5.55,1.72-7.77,1.15-2.23,2.67-4.08,4.57-5.56,1.9-1.48,3.98-2.58,6.24-3.31,2.26-.73,4.51-1.09,6.73-1.09,2.7,0,5.12.48,7.25,1.45,2.14.97,3.95,2.27,5.45,3.91,1.5,1.64,2.64,3.5,3.42,5.58s1.18,4.22,1.18,6.4c0,2.55-.51,4.93-1.53,7.12s-2.42,4.11-4.19,5.75c-1.77,1.64-3.81,2.93-6.13,3.86-2.32.93-4.77,1.39-7.36,1.39h0ZM215.26,67.54c2.19,0,4.15-.58,5.88-1.75,1.73-1.17,3.1-2.89,4.11-5.17,1-2.28,1.5-5.04,1.5-8.29s-.55-6.4-1.64-9.03c-1.1-2.63-2.66-4.7-4.71-6.21-2.04-1.51-4.49-2.27-7.33-2.27-3.54,0-6.29,1.27-8.24,3.8-1.95,2.54-2.93,6.05-2.93,10.54,0,2.63.33,5.06.99,7.31.66,2.25,1.58,4.21,2.76,5.88,1.19,1.68,2.59,2.97,4.22,3.86,1.62.89,3.42,1.34,5.39,1.34h0Z" fill="#fff"></path>
        <path d="M275.97,68.97c0,.11-.09.17-.27.19-.18.02-.31,0-.38-.03l-26.33-30.66c-1.31-1.5-2.44-2.51-3.37-3.04s-1.83-.79-2.71-.79c-.11,0-.16-.11-.16-.33s.05-.33.16-.33c.69,0,1.4.02,2.13.05.73.04,1.4.06,2.03.06,1.09,0,2.09-.02,2.98-.06.89-.04,1.58-.05,2.05-.05s.82.21,1.04.63c.22.42.77,1.16,1.64,2.22l20.75,24.42.44,7.72h0ZM248.16,61.58v-26.33l1.48.11v26.22c0,1.93.38,3.41,1.15,4.43.77,1.02,1.86,1.53,3.29,1.53.11,0,.16.11.16.33s-.06.33-.16.33c-.77,0-1.56-.02-2.38-.05-.82-.04-1.72-.06-2.71-.06-1.06,0-2.07.02-3.04.06-.97.04-1.87.05-2.71.05-.11,0-.17-.11-.17-.33s.06-.33.17-.33c1.6,0,2.83-.51,3.67-1.53.84-1.02,1.26-2.5,1.26-4.43h0ZM275.97,40.67v28.3l-1.48-1.64v-26.66c0-1.93-.37-3.42-1.12-4.46s-1.85-1.56-3.31-1.56c-.07,0-.11-.11-.11-.33s.04-.33.11-.33c.77,0,1.57.03,2.41.08.84.06,1.75.08,2.74.08s1.88-.03,2.79-.08c.91-.05,1.75-.08,2.52-.08.11,0,.16.11.16.33s-.06.33-.16.33c-1.46,0-2.58.52-3.37,1.56-.78,1.04-1.18,2.53-1.18,4.46h0Z" fill="#fff"></path>
        <path d="M298.91,35.14c-2.23,0-4.04.69-5.45,2.08-1.4,1.39-2.51,3.43-3.31,6.13,0,.11-.1.16-.3.14-.2-.02-.3-.06-.3-.14.07-.51.15-1.21.22-2.11.07-.89.16-1.87.25-2.93.09-1.06.16-2.09.22-3.09.05-1,.08-1.81.08-2.44,0-.18.1-.27.3-.27s.3.09.3.27c0,.37.19.63.57.8.38.16.81.27,1.29.33s.88.08,1.2.08c3.14.11,6.81.16,11,.16,2.59,0,4.64-.03,6.16-.08,1.51-.05,2.98-.08,4.41-.08,1.31,0,2.31-.08,2.98-.25s1.1-.54,1.29-1.12c.04-.15.15-.22.33-.22s.27.07.27.22c-.04.58-.09,1.38-.16,2.38-.07,1-.13,2.06-.16,3.18-.04,1.11-.07,2.13-.11,3.07-.04.93-.05,1.63-.05,2.11,0,.07-.1.11-.3.11s-.32-.04-.35-.11c-.4-2.88-1.28-4.97-2.63-6.27-1.35-1.29-3.16-1.94-5.42-1.94-.98,0-1.73.09-2.24.28-.51.18-.86.52-1.04,1.01-.18.49-.27,1.2-.27,2.11v25.24c0,1.06.12,1.86.36,2.41.24.55.69.91,1.37,1.09.68.18,1.71.27,3.09.27.11,0,.16.11.16.33s-.05.33-.16.33c-.99,0-2.11-.02-3.37-.05-1.26-.04-2.64-.06-4.13-.06s-2.76.02-4,.06c-1.24.04-2.39.05-3.45.05-.07,0-.11-.11-.11-.33s.04-.33.11-.33c1.39,0,2.43-.09,3.12-.27.69-.18,1.16-.55,1.4-1.09.24-.55.36-1.35.36-2.41v-25.34c0-.91-.08-1.6-.25-2.05s-.5-.77-1.01-.96-1.26-.28-2.24-.28h0Z" fill="#fff"></path>
        <path d="M354.53,68.2h-23.76c-.11,0-.17-.11-.17-.33s.06-.33.17-.33c1.2,0,2.1-.09,2.68-.27.58-.18.98-.55,1.18-1.09.2-.55.3-1.35.3-2.41v-25.34c0-1.06-.1-1.85-.3-2.38-.2-.53-.59-.89-1.18-1.09-.58-.2-1.48-.3-2.68-.3-.11,0-.17-.11-.17-.33s.06-.33.17-.33h22.77c.36,0,.55.16.55.49l.11,7.12c0,.07-.09.12-.27.14-.18.02-.31-.03-.38-.14-.4-2.08-1.24-3.63-2.52-4.65-1.28-1.02-2.96-1.53-5.04-1.53h-2.24c-.91,0-1.63.1-2.16.3s-.9.53-1.12.98c-.22.46-.33,1.07-.33,1.83v25.02c0,.77.1,1.39.3,1.89s.52.84.96,1.04c.44.2,1.06.3,1.86.3h2.68c2.48,0,4.49-.59,6.02-1.78s2.63-2.95,3.29-5.28c.04-.11.15-.15.35-.11.2.04.3.09.3.16-.15,1.02-.27,2.24-.38,3.67s-.17,2.74-.17,3.94c0,.55-.27.82-.82.82h0ZM351.46,55.83c0-1.53-.51-2.7-1.53-3.5s-2.55-1.2-4.6-1.2h-7.66v-1.42h7.72c2.04,0,3.56-.35,4.54-1.04.99-.69,1.48-1.7,1.48-3.01,0-.11.1-.16.3-.16s.3.05.3.16c0,1.17-.01,2.08-.03,2.74-.02.66-.03,1.33-.03,2.02,0,.88.03,1.74.08,2.6.06.86.08,1.8.08,2.82,0,.07-.11.11-.33.11s-.33-.04-.33-.11h0Z" fill="#fff"></path>
        <path d="M406.2,33.39c1.57,0,3.25.14,5.04.41,1.79.27,3.21.68,4.27,1.23.33.11.54.25.63.41s.16.45.19.85l.66,7.12c0,.07-.08.14-.25.19-.16.06-.28.01-.36-.14-1.06-2.85-2.66-5.02-4.79-6.51-2.14-1.5-4.65-2.24-7.53-2.24-2.59,0-4.79.62-6.6,1.86-1.81,1.24-3.19,2.97-4.16,5.17-.97,2.21-1.45,4.77-1.45,7.69,0,2.55.35,4.95,1.04,7.17.69,2.23,1.66,4.18,2.9,5.86,1.24,1.68,2.7,2.99,4.38,3.94,1.68.95,3.5,1.42,5.47,1.42,2.41,0,4.55-.74,6.43-2.22,1.88-1.48,3.48-3.8,4.79-6.98.07-.15.2-.19.38-.14.18.05.27.12.27.19l-.82,7.01c-.07.44-.16.72-.25.85-.09.13-.3.27-.63.41-1.68.66-3.38,1.14-5.09,1.45-1.72.31-3.39.46-5.04.46-3.5,0-6.51-.54-9.03-1.61-2.52-1.08-4.56-2.5-6.13-4.27-1.57-1.77-2.73-3.71-3.48-5.83s-1.12-4.2-1.12-6.24c0-2.66.56-5.07,1.67-7.23s2.62-4,4.52-5.53c1.9-1.53,4.06-2.71,6.49-3.53,2.43-.82,4.95-1.23,7.58-1.23h0Z" fill="#fff"></path>
        <path d="M464.83,67.54c.15,0,.22.11.22.33s-.07.33-.22.33c-1.1,0-2.22-.04-3.37-.11-1.15-.07-2.25-.11-3.31-.11-1.21,0-2.25.04-3.15.11-.89.07-1.89.11-2.98.11-.15,0-.22-.11-.22-.33s.07-.33.22-.33c1.64,0,2.63-.29,2.96-.87.33-.58.06-1.73-.82-3.45l-11.44-23.27,2.25-3.67-10.84,24.42c-.95,2.23-.98,3.92-.08,5.09.89,1.17,2.42,1.75,4.57,1.75.18,0,.27.11.27.33s-.09.33-.27.33c-1.09,0-2.1-.04-3.01-.11-.91-.07-2.06-.11-3.45-.11s-2.49.04-3.31.11c-.82.07-1.83.11-3.04.11-.15,0-.22-.11-.22-.33s.07-.33.22-.33c.99,0,1.83-.2,2.55-.6.71-.4,1.41-1.14,2.11-2.22.69-1.08,1.46-2.58,2.3-4.52l11.77-26.55c.07-.11.24-.16.49-.16s.4.05.44.16l13.41,27.04c.84,1.75,1.59,3.13,2.24,4.13.66,1,1.28,1.71,1.86,2.11s1.21.6,1.86.6h0ZM437.73,51.23l.82-1.42h11.28l.38,1.42h-12.48Z" fill="#fff"></path>
        <path d="M479.83,39.84c0,1.42.36,2.66,1.09,3.7.73,1.04,1.67,1.98,2.82,2.82,1.15.84,2.36,1.66,3.64,2.46,1.39.84,2.71,1.73,3.97,2.68,1.26.95,2.3,2.03,3.12,3.26.82,1.22,1.23,2.71,1.23,4.46,0,1.9-.49,3.57-1.48,5.01-.99,1.44-2.34,2.57-4.08,3.39-1.73.82-3.77,1.23-6.1,1.23-.99,0-2.02-.09-3.09-.27-1.08-.18-2.08-.44-3.01-.77-.93-.33-1.69-.67-2.27-1.04-.15-.11-.27-.24-.36-.38-.09-.15-.16-.36-.19-.66l-.33-8.27c-.04-.18.05-.28.25-.3.2-.02.32.05.36.19.44,1.1.96,2.25,1.56,3.48s1.3,2.34,2.11,3.37c.8,1.02,1.72,1.85,2.76,2.49s2.24.96,3.59.96c.95,0,1.84-.16,2.68-.49.84-.33,1.53-.9,2.08-1.72s.82-1.94.82-3.37c0-1.71-.39-3.18-1.18-4.41-.78-1.22-1.78-2.29-2.98-3.2-1.2-.91-2.46-1.77-3.78-2.57-1.28-.84-2.5-1.7-3.67-2.57s-2.13-1.89-2.87-3.04c-.75-1.15-1.12-2.55-1.12-4.19,0-2.01.55-3.65,1.64-4.93,1.1-1.28,2.49-2.23,4.19-2.85,1.7-.62,3.44-.93,5.23-.93,1.2,0,2.43.11,3.67.33,1.24.22,2.3.53,3.18.93.33.11.55.25.66.44.11.18.16.38.16.6l.11,7.39c0,.15-.08.24-.25.27s-.28,0-.36-.11c-.18-.55-.46-1.3-.82-2.27-.37-.97-.88-1.94-1.53-2.93-.66-.99-1.48-1.82-2.46-2.52-.98-.69-2.19-1.04-3.61-1.04-1.1,0-2.04.22-2.85.66-.8.44-1.42,1.05-1.86,1.83-.44.79-.66,1.74-.66,2.87h0Z" fill="#fff"></path>
        <path d="M524.66,68.86c-2.63,0-5.01-.46-7.14-1.39-2.14-.93-3.96-2.22-5.47-3.86-1.51-1.64-2.68-3.53-3.5-5.67-.82-2.14-1.23-4.41-1.23-6.81,0-2.96.57-5.55,1.72-7.77,1.15-2.23,2.67-4.08,4.57-5.56,1.9-1.48,3.98-2.58,6.24-3.31,2.26-.73,4.51-1.09,6.73-1.09,2.7,0,5.12.48,7.25,1.45,2.14.97,3.95,2.27,5.45,3.91,1.5,1.64,2.64,3.5,3.42,5.58s1.18,4.22,1.18,6.4c0,2.55-.51,4.93-1.53,7.12s-2.42,4.11-4.19,5.75c-1.77,1.64-3.81,2.93-6.13,3.86-2.32.93-4.77,1.39-7.36,1.39h0ZM526.53,67.54c2.19,0,4.15-.58,5.88-1.75,1.73-1.17,3.1-2.89,4.11-5.17,1-2.28,1.5-5.04,1.5-8.29s-.55-6.4-1.64-9.03c-1.1-2.63-2.66-4.7-4.71-6.21-2.04-1.51-4.49-2.27-7.33-2.27-3.54,0-6.29,1.27-8.24,3.8-1.95,2.54-2.93,6.05-2.93,10.54,0,2.63.33,5.06.99,7.31.66,2.25,1.58,4.21,2.76,5.88,1.19,1.68,2.59,2.97,4.22,3.86,1.62.89,3.42,1.34,5.39,1.34h0Z" fill="#fff"></path>
        <path d="M587.23,68.97c0,.11-.09.17-.27.19-.18.02-.31,0-.38-.03l-26.33-30.66c-1.31-1.5-2.44-2.51-3.37-3.04s-1.83-.79-2.71-.79c-.11,0-.16-.11-.16-.33s.05-.33.16-.33c.69,0,1.4.02,2.13.05.73.04,1.4.06,2.03.06,1.09,0,2.09-.02,2.98-.06.89-.04,1.58-.05,2.05-.05s.82.21,1.04.63c.22.42.77,1.16,1.64,2.22l20.75,24.42.44,7.72h0ZM559.42,61.58v-26.33l1.48.11v26.22c0,1.93.38,3.41,1.15,4.43.77,1.02,1.86,1.53,3.29,1.53.11,0,.16.11.16.33s-.06.33-.16.33c-.77,0-1.56-.02-2.38-.05-.82-.04-1.72-.06-2.71-.06-1.06,0-2.07.02-3.04.06-.97.04-1.87.05-2.71.05-.11,0-.17-.11-.17-.33s.06-.33.17-.33c1.6,0,2.83-.51,3.67-1.53.84-1.02,1.26-2.5,1.26-4.43h0ZM587.23,40.67v28.3l-1.48-1.64v-26.66c0-1.93-.37-3.42-1.12-4.46s-1.85-1.56-3.31-1.56c-.07,0-.11-.11-.11-.33s.04-.33.11-.33c.77,0,1.57.03,2.41.08.84.06,1.75.08,2.74.08s1.88-.03,2.79-.08c.91-.05,1.75-.08,2.52-.08.11,0,.16.11.16.33s-.06.33-.16.33c-1.46,0-2.58.52-3.37,1.56-.78,1.04-1.18,2.53-1.18,4.46h0Z" fill="#fff"></path>
        <path d="M624.73,68.2h-23.76c-.11,0-.17-.11-.17-.33s.06-.33.17-.33c1.2,0,2.1-.09,2.68-.27.58-.18.98-.55,1.18-1.09.2-.55.3-1.35.3-2.41v-25.34c0-1.06-.1-1.85-.3-2.38-.2-.53-.59-.89-1.18-1.09-.58-.2-1.48-.3-2.68-.3-.11,0-.17-.11-.17-.33s.06-.33.17-.33h22.77c.36,0,.55.16.55.49l.11,7.12c0,.07-.09.12-.27.14-.18.02-.31-.03-.38-.14-.4-2.08-1.24-3.63-2.52-4.65-1.28-1.02-2.96-1.53-5.04-1.53h-2.24c-.91,0-1.63.1-2.16.3s-.9.53-1.12.98c-.22.46-.33,1.07-.33,1.83v25.02c0,.77.1,1.39.3,1.89s.52.84.96,1.04c.44.2,1.06.3,1.86.3h2.68c2.48,0,4.49-.59,6.02-1.78s2.63-2.95,3.29-5.28c.04-.11.15-.15.35-.11.2.04.3.09.3.16-.15,1.02-.27,2.24-.38,3.67s-.17,2.74-.17,3.94c0,.55-.27.82-.82.82h0ZM621.67,55.83c0-1.53-.51-2.7-1.53-3.5s-2.55-1.2-4.6-1.2h-7.66v-1.42h7.72c2.04,0,3.56-.35,4.54-1.04.99-.69,1.48-1.7,1.48-3.01,0-.11.1-.16.3-.16s.3.05.3.16c0,1.17-.01,2.08-.03,2.74-.02.66-.03,1.33-.03,2.02,0,.88.03,1.74.08,2.6.06.86.08,1.8.08,2.82,0,.07-.11.11-.33.11s-.33-.04-.33-.11h0Z" fill="#fff"></path>
      </g>
    </g>
  </g>
</svg>